<svg xmlns="http://www.w3.org/2000/svg" width="15.185" height="21.328" viewBox="0 0 15.185 21.328">
  <g id="Group_2219" data-name="Group 2219" transform="translate(-297.232 -762.123)">
    <path id="Path_1924" data-name="Path 1924" d="M183.9,33.6a7.306,7.306,0,0,0-7.09,5.394,8.045,8.045,0,0,0-.245,2.156c.012,2.464,1.336,4.594,2.83,6.66a32.209,32.209,0,0,1,4.075,6.327.474.474,0,0,0,.874,0,32.223,32.223,0,0,1,4.075-6.327c1.494-2.067,2.818-4.2,2.83-6.66a8.044,8.044,0,0,0-.245-2.156,7.306,7.306,0,0,0-7.09-5.394H183.9Zm0,.948h.015a6.34,6.34,0,0,1,6.171,4.69,7.172,7.172,0,0,1,.215,1.912c-.01,2.123-1.185,4.075-2.652,6.105a40.588,40.588,0,0,0-3.742,5.631,40.587,40.587,0,0,0-3.742-5.631c-1.467-2.03-2.642-3.982-2.652-6.105a7.171,7.171,0,0,1,.215-1.912,6.339,6.339,0,0,1,6.171-4.69Zm-.007,3.29a3.038,3.038,0,1,0,3.045,3.045A3.046,3.046,0,0,0,183.9,37.836Zm0,.948a2.089,2.089,0,1,1-2.1,2.089,2.095,2.095,0,0,1,2.1-2.089Z" transform="translate(120.913 728.775)" fill="#48b59e" stroke="#48b59e" stroke-width="0.5"/>
  </g>
</svg>
