<svg xmlns="http://www.w3.org/2000/svg" width="9.469" height="5.525" viewBox="0 0 9.469 5.525">
  <path id="Path_8" data-name="Path 8" d="M10.2,34.463a.257.257,0,0,0-.1-.2l-4.42-4.437a.3.3,0,0,0-.221-.085.246.246,0,0,0-.2.085L.833,34.259a.257.257,0,0,0-.1.2.309.309,0,0,0,.1.221l.476.476a.257.257,0,0,0,.2.1.309.309,0,0,0,.221-.1l3.723-3.723L9.2,35.16a.274.274,0,0,0,.221.1.229.229,0,0,0,.2-.1l.476-.476A.274.274,0,0,0,10.2,34.463Z" transform="translate(10.2 35.262) rotate(180)" fill="#636363"/>
</svg>
