<svg xmlns="http://www.w3.org/2000/svg" width="9.469" height="5.525" viewBox="0 0 9.469 5.525">
  <path id="Path_7" data-name="Path 7" d="M10.2,8.537a.257.257,0,0,1-.1.2l-4.42,4.437a.3.3,0,0,1-.221.085.246.246,0,0,1-.2-.085L.833,8.741a.257.257,0,0,1-.1-.2.309.309,0,0,1,.1-.221l.476-.476a.257.257,0,0,1,.2-.1.309.309,0,0,1,.221.1l3.723,3.723L9.2,7.84a.274.274,0,0,1,.221-.1.229.229,0,0,1,.2.1l.476.476A.274.274,0,0,1,10.2,8.537Z" transform="translate(10.2 13.263) rotate(180)" fill="#636363"/>
</svg>
