<svg xmlns="http://www.w3.org/2000/svg" width="24.019" height="25.867" viewBox="0 0 24.019 25.867">
  <g id="down-arrow" transform="translate(-17.067)">
    <g id="Group_2009" data-name="Group 2009" transform="translate(17.067 8.314)">
      <g id="Group_2008" data-name="Group 2008" transform="translate(0)">
        <path id="Path_969" data-name="Path 969" d="M38.315,153.6H33.7a.924.924,0,1,0,0,1.848h4.619a.924.924,0,0,1,.924.924v12.01a.924.924,0,0,1-.924.924H19.838a.924.924,0,0,1-.924-.924v-12.01a.924.924,0,0,1,.924-.924h4.619a.924.924,0,1,0,0-1.848H19.838a2.771,2.771,0,0,0-2.771,2.771v12.01a2.771,2.771,0,0,0,2.771,2.771H38.315a2.771,2.771,0,0,0,2.771-2.771v-12.01A2.771,2.771,0,0,0,38.315,153.6Z" transform="translate(-17.067 -153.6)"/>
      </g>
    </g>
    <g id="Group_2011" data-name="Group 2011" transform="translate(23.545)">
      <g id="Group_2010" data-name="Group 2010">
        <path id="Path_970" data-name="Path 970" d="M147.525,13.2a.924.924,0,0,0-1.284,0L143.2,16.246V.924a.924.924,0,0,0-1.848,0V16.246L138.308,13.2A.924.924,0,0,0,137,14.51l4.619,4.619a.924.924,0,0,0,1.306,0l0,0,4.619-4.619A.924.924,0,0,0,147.525,13.2Z" transform="translate(-136.742)"/>
      </g>
    </g>
  </g>
</svg>
