<svg xmlns="http://www.w3.org/2000/svg" width="18.811" height="11.997" viewBox="0 0 18.811 11.997">
  <path id="Path_1930" data-name="Path 1930" d="M109.838,128.8a.647.647,0,0,0-.639.639v10.22a.647.647,0,0,0,.639.639h17.033a.647.647,0,0,0,.639-.639v-10.22a.647.647,0,0,0-.639-.639Zm.213.852h16.607v.632l-8.3,6.074-8.3-6.074v-.632Zm0,1.69,8.051,5.889h0a.426.426,0,0,0,.506,0l8.051-5.889v8.1H110.051v-8.1Z" transform="translate(-108.949 -128.55)" fill="#48b59e" stroke="#48b59e" stroke-width="0.5"/>
</svg>
