<?xml version="1.0" encoding="utf-8"?>
<!-- Generator: Adobe Illustrator 15.1.0, SVG Export Plug-In . SVG Version: 6.00 Build 0)  -->
<!DOCTYPE svg PUBLIC "-//W3C//DTD SVG 1.0//EN" "http://www.w3.org/TR/2001/REC-SVG-20010904/DTD/svg10.dtd">
<svg version="1.0" id="Layer_1" xmlns="http://www.w3.org/2000/svg" xmlns:xlink="http://www.w3.org/1999/xlink" x="0px" y="0px"
	 width="25px" height="30px" viewBox="0 0 25 30" enable-background="new 0 0 25 30" xml:space="preserve">
<path fill="#B0B0B0" d="M18.512,10.476l1.543-1.298l-1.15-1.365l-2.066,1.738c-1.322-0.624-2.787-1.056-4.335-1.056
	c-5.792,0-10.487,5.949-10.487,5.949s1.73,2.182,4.377,3.904l-1.618,1.362l1.15,1.365l2.129-1.792
	c1.351,0.652,2.854,1.109,4.449,1.109c5.791,0,10.484-5.949,10.484-5.949S21.215,12.207,18.512,10.476z M8.759,14.444
	c0-2.067,1.676-3.743,3.744-3.743c0.802,0,1.542,0.258,2.152,0.689l-1.326,1.117c-0.254-0.109-0.533-0.17-0.826-0.17
	c-1.165,0-2.108,0.943-2.108,2.107c0,0.167,0.024,0.327,0.061,0.482l-1.326,1.117C8.898,15.558,8.759,15.02,8.759,14.444z
	 M12.502,18.187c-0.846,0-1.616-0.289-2.243-0.762l1.309-1.102c0.282,0.141,0.596,0.229,0.934,0.229
	c1.162,0,2.105-0.943,2.105-2.107c0-0.21-0.039-0.408-0.096-0.599l1.307-1.1c0.264,0.512,0.426,1.084,0.426,1.699
	C16.244,16.512,14.568,18.187,12.502,18.187z"/>
</svg>
