<svg xmlns="http://www.w3.org/2000/svg" width="18.839" height="16.147" viewBox="0 0 18.839 16.147">
  <g id="Group_2220" data-name="Group 2220" transform="translate(-134.165 -733.636)">
    <path id="Path_1926" data-name="Path 1926" d="M103.742,59.556h-1.77V58.05a.4.4,0,0,0-.115-.278l-2.427-2.427a.4.4,0,0,0-.278-.115H91.56a1.5,1.5,0,0,0-1.5,1.5v2.83h-1.77a1.5,1.5,0,0,0-1.5,1.5v6.621a1.5,1.5,0,0,0,1.5,1.5h1.77v.314a1.5,1.5,0,0,0,1.5,1.5h8.916a1.5,1.5,0,0,0,1.5-1.5v-.314h1.77a1.5,1.5,0,0,0,1.5-1.5V61.051a1.5,1.5,0,0,0-1.5-1.5Zm-4.2-2.986,1.088,1.088h-.6a.491.491,0,0,1-.49-.49Zm-8.695.156a.712.712,0,0,1,.711-.711h7.2v1.152h0a1.277,1.277,0,0,0,1.275,1.275h1.152v1.113H90.849Zm10.338,12.756h0a.712.712,0,0,1-.711.711H91.56a.712.712,0,0,1-.711-.711V65.637h10.338Zm3.266-1.81a.712.712,0,0,1-.711.711h-1.77V65.637h.623a.392.392,0,0,0,0-.785H89.442a.392.392,0,0,0,0,.785h.623v2.746h-1.77a.712.712,0,0,1-.711-.711V61.051a.712.712,0,0,1,.711-.711h15.448a.712.712,0,0,1,.711.711Z" transform="translate(47.567 678.605)" fill="#48b59e" stroke="#48b59e" stroke-width="0.4"/>
    <path id="Path_1927" data-name="Path 1927" d="M241.745,382.2H234.4a.392.392,0,0,0,0,.785h7.342a.392.392,0,0,0,0-.785Z" transform="translate(-94.489 363.089)" fill="#48b59e" stroke="#48b59e" stroke-width="0.4"/>
    <path id="Path_1928" data-name="Path 1928" d="M241.745,430.08H234.4a.392.392,0,0,0,0,.785h7.342a.392.392,0,0,0,0-.785Z" transform="translate(-94.489 316.886)" fill="#48b59e" stroke="#48b59e" stroke-width="0.4"/>
    <path id="Path_1929" data-name="Path 1929" d="M501.175,229.11a1.1,1.1,0,1,0,.776.322,1.1,1.1,0,0,0-.776-.322Zm0,1.412a.314.314,0,1,1,.314-.314A.314.314,0,0,1,501.175,230.522Z" transform="translate(-351.235 510.816)" fill="#48b59e" stroke="#48b59e" stroke-width="0.4"/>
  </g>
</svg>
