<svg id="hamburger" xmlns="http://www.w3.org/2000/svg" width="25.13" height="18.847" viewBox="0 0 25.13 18.847">
  <path id="Path_1" data-name="Path 1" d="M172.372,148.745h21.989a1.571,1.571,0,0,0,0-3.141H172.372a1.571,1.571,0,1,0,0,3.141Z" transform="translate(-170.802 -145.604)" fill="#0f0f0f"/>
  <path id="Path_2" data-name="Path 2" d="M194.362,257.6H172.372a1.57,1.57,0,1,0,0,3.141h21.989a1.57,1.57,0,0,0,0-3.141Z" transform="translate(-170.802 -249.747)" fill="#0f0f0f"/>
  <path id="Path_3" data-name="Path 3" d="M194.362,369.6H172.372a1.571,1.571,0,1,0,0,3.141h21.989a1.571,1.571,0,0,0,0-3.141Z" transform="translate(-170.802 -353.894)" fill="#0f0f0f"/>
</svg>
