<svg xmlns="http://www.w3.org/2000/svg" width="17.514" height="16.437" viewBox="0 0 17.514 16.437">
  <g id="home" transform="translate(0.15 0.15)">
    <path id="Path_1444" data-name="Path 1444" d="M52.977,202.184H41.547A1.548,1.548,0,0,1,40,200.638V192.5a.538.538,0,1,1,1.076,0v8.137a.471.471,0,0,0,.471.471H52.977a.471.471,0,0,0,.471-.471V192.5a.538.538,0,1,1,1.076,0v8.137A1.548,1.548,0,0,1,52.977,202.184Z" transform="translate(-38.655 -186.048)" fill="#0a0a0a" stroke="#0a0a0a" stroke-width="0.3"/>
    <path id="Path_1445" data-name="Path 1445" d="M16.676,24.353a.536.536,0,0,1-.38-.158l-6.69-6.69a1.414,1.414,0,0,0-2,0L.919,24.2a.538.538,0,0,1-.761-.761l6.69-6.69a2.491,2.491,0,0,1,3.518,0l6.69,6.69a.538.538,0,0,1-.38.918Z" transform="translate(0 -16.017)" fill="#0a0a0a" stroke="#0a0a0a" stroke-width="0.3"/>
    <path id="Path_1446" data-name="Path 1446" d="M180.841,294.976h-4.3a.538.538,0,0,1-.538-.538v-4.774a1.683,1.683,0,0,1,1.681-1.681H179.7a1.683,1.683,0,0,1,1.681,1.681v4.774A.538.538,0,0,1,180.841,294.976Zm-3.766-1.076H180.3v-4.236a.606.606,0,0,0-.605-.605h-2.017a.606.606,0,0,0-.605.605Z" transform="translate(-170.083 -278.839)" fill="#0a0a0a" stroke="#0a0a0a" stroke-width="0.3"/>
  </g>
</svg>
