<?xml version="1.0" encoding="utf-8"?>
<!-- Generator: Adobe Illustrator 25.3.1, SVG Export Plug-In . SVG Version: 6.00 Build 0)  -->
<svg version="1.1" id="Layer_1" xmlns="http://www.w3.org/2000/svg" xmlns:xlink="http://www.w3.org/1999/xlink" x="0px" y="0px"
	 width="15.8px" height="15.6px" viewBox="0 0 15.8 15.6" style="enable-background:new 0 0 15.8 15.6;" xml:space="preserve">
<style type="text/css">
	.st0{fill:#0F0F0F;}
</style>
<g id="search" transform="translate(-174.515 -104.07)">
	<path id="Path_6" class="st0" d="M185.6,106c-2.5-2.5-6.6-2.5-9.2,0c-2.5,2.5-2.5,6.6,0,9.2c2.3,2.3,6,2.5,8.6,0.5l4.3,4.2
		c0.3,0.3,0.8,0.2,1.1-0.2c0.2-0.3,0.2-0.6,0-0.9l-4.2-4.3C188.1,112,187.9,108.3,185.6,106L185.6,106z M184.5,114
		c-1.9,1.9-5.1,1.9-7,0c0,0,0,0,0,0c-0.9-0.9-1.5-2.2-1.5-3.5c0-2.7,2.2-5,5-5c2.7,0,5,2.2,5,5C185.9,111.9,185.4,113.1,184.5,114
		L184.5,114z"/>
</g>
</svg>
