<svg xmlns="http://www.w3.org/2000/svg" width="18.439" height="18.461" viewBox="0 0 18.439 18.461">
  <path id="Path_1925" data-name="Path 1925" d="M122.527,36.917l-2.188-2.19-.49-.49a1.328,1.328,0,0,0-.81-.381q-.065-.006-.13-.006a1.327,1.327,0,0,0-.939.387l-3.211,3.211a1.329,1.329,0,0,0,0,1.877l1.129,1.131a1.632,1.632,0,0,1,.148,2.148,14.39,14.39,0,0,1-2.184,2.254,1.63,1.63,0,0,1-2.188-.117l-1.055-1.055a1.333,1.333,0,0,0-1.875,0L105.522,46.9a1.331,1.331,0,0,0,0,1.877l3.053,3.053a1.633,1.633,0,0,0,1.481.449c.231-.047.461-.1.688-.157a17.178,17.178,0,0,0,4.567-1.86q.587-.343,1.145-.729a17.631,17.631,0,0,0,4.276-4.229c.262-.369.507-.746.744-1.135a17.44,17.44,0,0,0,1.9-4.523q.087-.328.161-.661a1.637,1.637,0,0,0-.445-1.5ZM120.5,43.194c-.225.4-.468.777-.727,1.151a16.234,16.234,0,0,1-4.274,4.229c-.379.251-.766.49-1.164.713A16.024,16.024,0,0,1,110.55,50.8a1.633,1.633,0,0,1-1.559-.433l-2.525-2.525,3.211-3.211h0l1.821,1.817.07.07a1.612,1.612,0,0,0,2.06.185,15.657,15.657,0,0,0,4.2-4.311c.006-.01.014-.021.021-.031a1.627,1.627,0,0,0-.222-2.043l-.77-.77a1.637,1.637,0,0,1,0-2.317l2.052-2.052h0l2.713,2.713a1.632,1.632,0,0,1,.426,1.582,16.258,16.258,0,0,1-1.551,3.72Z" transform="translate(-105.136 -33.85)" fill="#48b59e"/>
</svg>
