<svg xmlns="http://www.w3.org/2000/svg" width="17.236" height="17.236" viewBox="0 0 17.236 17.236">
  <g id="Group_2221" data-name="Group 2221" transform="translate(-175.77 -758)">
    <path id="Path_1931" data-name="Path 1931" d="M145.818,67.2a8.618,8.618,0,1,0,8.618,8.618A8.628,8.628,0,0,0,145.818,67.2Zm0,1.361a7.257,7.257,0,1,1-7.257,7.257A7.247,7.247,0,0,1,145.818,68.564Zm0,1.134a.68.68,0,0,0-.68.68v5.443a.679.679,0,0,0,.2.482l3.529,3.529a.682.682,0,1,0,.964-.964L146.5,75.538v-5.16a.68.68,0,0,0-.68-.68Z" transform="translate(38.57 690.797)" fill="#48b59e"/>
  </g>
</svg>
