<?xml version="1.0" encoding="utf-8"?>
<!-- Generator: Adobe Illustrator 25.3.1, SVG Export Plug-In . SVG Version: 6.00 Build 0)  -->
<svg version="1.1" id="Layer_1" xmlns="http://www.w3.org/2000/svg" xmlns:xlink="http://www.w3.org/1999/xlink" x="0px" y="0px"
	 width="14.6px" height="15.7px" viewBox="0 0 14.6 15.7" style="enable-background:new 0 0 14.6 15.7;" xml:space="preserve">
<style type="text/css">
	.st0{fill:#0F0F0F;stroke:#0F0F0F;stroke-width:0.3;}
</style>
<g id="user" transform="translate(-125.499 -34.85)">
	<path id="Path_4" class="st0" d="M137.5,43.4c-0.2-0.2-0.5-0.4-0.7-0.6c-0.2-0.2-0.6-0.1-0.8,0.1c0,0,0,0,0,0
		c-0.2,0.2-0.1,0.6,0.1,0.8c0.2,0.2,0.4,0.3,0.6,0.5c1.1,1.1,1.7,2.6,1.7,4.1v0.2c0,0.3-0.2,0.5-0.5,0.5l0,0h-10.6
		c-0.3,0-0.5-0.2-0.5-0.5v-0.2c0-1.8,0.9-3.6,2.3-4.7c0.2-0.2,0.3-0.5,0.1-0.8c-0.2-0.2-0.5-0.3-0.8-0.1c-1.7,1.3-2.8,3.4-2.8,5.5
		v0.2c0,0.9,0.7,1.6,1.6,1.6h10.6c0.9,0,1.6-0.7,1.6-1.6v-0.2C139.5,46.5,138.8,44.7,137.5,43.4L137.5,43.4z"/>
	<path id="Path_5" class="st0" d="M134.7,43.2c2.1-1.1,2.9-3.8,1.8-5.9c-1.1-2.1-3.8-2.9-5.9-1.8c-2.1,1.1-2.9,3.8-1.8,5.9
		c0.4,0.8,1,1.4,1.8,1.8C131.8,43.9,133.4,43.9,134.7,43.2z M132.6,36.1c1.8,0,3.3,1.5,3.3,3.3s-1.5,3.3-3.3,3.3s-3.3-1.5-3.3-3.3v0
		C129.3,37.6,130.8,36.1,132.6,36.1L132.6,36.1z"/>
</g>
</svg>
